<svg xmlns="http://www.w3.org/2000/svg" width="1920" height="1080" viewBox="0 0 1920 1080" version="1.1"><path d="M 919 399.500 L 919 464 854.500 464 L 790 464 790 505 L 790 546 854.500 546 L 919 546 919 610.500 L 919 675 960 675 L 1001 675 1001 610.500 L 1001 546 1065.500 546 L 1130 546 1129.843 534.250 L 1129.686 522.500 1129.034 532.726 C 1128.675 538.351, 1128.151 543.182, 1127.870 543.463 C 1127.590 543.744, 1098.457 543.992, 1063.131 544.015 L 998.902 544.056 999.004 556.778 C 999.059 563.775, 999.081 592.788, 999.052 621.250 L 999 673 986.250 672.985 C 970.554 672.967, 945.486 671.380, 929.750 669.408 L 925 668.812 924.899 651.656 C 924.844 642.220, 924.668 627.525, 924.509 619 C 924.349 610.475, 924.135 589.438, 924.033 572.250 L 923.848 541 905.674 540.929 C 887.735 540.859, 838.927 540.215, 811.289 539.685 C 803.474 539.535, 796.870 539.203, 796.614 538.947 C 795.519 537.852, 794.955 527.680, 794.414 499.250 C 793.942 474.469, 794.078 468.984, 795.169 468.913 C 798.553 468.691, 832.574 468.114, 874.941 467.559 C 900.484 467.224, 921.520 466.813, 921.688 466.645 C 922.011 466.322, 922.799 410.422, 923.110 365.732 C 923.293 339.403, 923.331 338.957, 925.398 338.545 C 930.477 337.533, 936.550 337.047, 952 336.415 C 961.075 336.044, 968.688 335.574, 968.917 335.371 C 969.146 335.167, 958.008 335, 944.167 335 L 919 335 919 399.500 M 679 423.888 C 656.762 431.086, 642.949 448.007, 640.527 471.017 C 638.064 494.416, 654.974 519.029, 678.458 526.228 C 688.743 529.380, 705.004 529.362, 714.190 526.188 C 759.008 510.703, 763.323 451.079, 721.211 429.171 C 716.856 426.905, 710.657 424.364, 707.436 423.525 C 699.531 421.466, 685.946 421.640, 679 423.888 M 1212.500 423.077 C 1210.300 423.624, 1204.675 425.921, 1200 428.181 C 1193.466 431.339, 1189.877 433.933, 1184.483 439.395 C 1173.313 450.705, 1169 461.049, 1169 476.529 C 1169 490.838, 1174.305 503.349, 1184.757 513.691 C 1209.486 538.158, 1254.131 532.119, 1271.656 501.935 C 1273.391 498.946, 1275.106 495.375, 1275.466 494 C 1275.826 492.625, 1274.786 493.856, 1273.155 496.736 C 1268.741 504.530, 1264.346 509.681, 1258.297 514.150 C 1253.601 517.619, 1247.853 520.731, 1244.500 521.618 C 1243.950 521.764, 1242.375 522.212, 1241 522.615 C 1237.601 523.610, 1219.864 523.857, 1218 522.936 C 1217.175 522.528, 1214.475 521.597, 1212 520.867 C 1207.628 519.577, 1196.852 512.886, 1193.271 509.238 C 1191.145 507.073, 1185.525 499.705, 1185.461 499 C 1185.436 498.725, 1184.691 497.144, 1183.805 495.487 C 1178.411 485.401, 1177.203 468.863, 1181.102 458.500 C 1185.951 445.613, 1193.768 435.838, 1204.037 429.823 C 1210.123 426.258, 1219.843 423.857, 1228.082 423.883 C 1234.885 423.904, 1246.456 426.316, 1248.716 428.184 C 1249.385 428.737, 1250.486 429.005, 1251.162 428.779 C 1251.838 428.554, 1249.266 427.094, 1245.446 425.536 C 1239.550 423.130, 1236.838 422.655, 1227.500 422.392 C 1221.450 422.222, 1214.700 422.530, 1212.500 423.077 M 685.978 425.835 C 682.390 426.751, 676.942 428.739, 673.869 430.254 C 668.069 433.114, 654.589 445.526, 655.566 447.107 C 655.870 447.598, 655.728 448, 655.251 448 C 654.150 448, 649.543 458.366, 648.363 463.500 C 647.412 467.638, 647.292 479.359, 648.160 483.352 C 649.720 490.532, 655.785 501.653, 661.513 507.841 C 669.135 516.073, 678.416 520.648, 690.467 522.114 C 698.852 523.134, 700.921 523.065, 710 521.464 C 726.466 518.561, 743.999 498.529, 745.662 480.721 C 746.045 476.612, 746.672 474.297, 747.296 474.683 C 747.947 475.085, 747.986 474.807, 747.405 473.905 C 746.526 472.540, 745.938 467.890, 745.804 461.250 C 745.760 459.081, 745.248 458, 744.262 458 C 743.361 458, 743.010 457.416, 743.362 456.500 C 744.060 454.681, 743.096 451.823, 742.011 452.493 C 741.583 452.758, 740.657 451.587, 739.955 449.891 C 737.853 444.817, 730.277 436.822, 722.752 431.738 C 713.574 425.538, 697.344 422.932, 685.978 425.835 M 1208.500 637.659 C 1183.743 642.944, 1167.955 663.311, 1168.015 689.886 C 1168.053 706.797, 1175.096 721.357, 1188.303 731.823 C 1191.711 734.525, 1196.467 737.731, 1198.871 738.950 L 1203.242 741.164 1202.547 748.215 C 1201.027 763.642, 1196.012 773.380, 1183.334 785.525 L 1176 792.549 1176.005 810.525 C 1176.010 827.659, 1176.115 828.631, 1178.259 831.310 L 1180.507 834.120 1196.096 828.657 C 1213.025 822.725, 1224.134 817.637, 1233.500 811.526 C 1241.306 806.433, 1258.691 789.085, 1263.326 781.765 C 1269.698 771.698, 1277.939 753.984, 1276.235 754.012 C 1275.831 754.019, 1274.270 757.065, 1272.766 760.781 C 1269.055 769.954, 1262.517 780.658, 1255.952 788.315 C 1249.543 795.788, 1236.935 806.440, 1230.232 810.044 C 1227.629 811.443, 1224.150 813.325, 1222.500 814.226 C 1215.230 818.196, 1188.883 828, 1185.485 828 C 1185.123 828, 1184.962 821.593, 1185.127 813.763 C 1185.459 797.914, 1184.973 799.194, 1194.122 790.068 C 1200.002 784.201, 1209 771.239, 1209 768.634 C 1209 767.800, 1209.386 766.880, 1209.857 766.588 C 1210.878 765.958, 1212.865 756.331, 1213.281 750 C 1213.800 742.124, 1212.021 738.888, 1205.399 735.666 C 1198.064 732.095, 1190.557 725.853, 1187.252 720.575 C 1185.849 718.334, 1184.422 716.275, 1184.082 716 C 1183.741 715.725, 1182.359 712.350, 1181.012 708.500 C 1179.186 703.285, 1178.519 699.162, 1178.393 692.331 C 1178.198 681.691, 1179.657 674.456, 1183.757 665.733 C 1186.691 659.491, 1195.488 649.615, 1199.150 648.452 C 1200.168 648.129, 1201 647.446, 1201 646.933 C 1201 646.420, 1201.338 646.069, 1201.750 646.154 C 1202.162 646.239, 1204.300 645.504, 1206.500 644.521 C 1213.054 641.590, 1220.637 640.221, 1228.805 640.494 C 1237.372 640.779, 1241.408 641.609, 1244.750 643.773 C 1245.987 644.574, 1247 644.781, 1247 644.231 C 1247 643.160, 1239.044 639.773, 1232.500 638.059 C 1228.644 637.049, 1212.609 636.782, 1208.500 637.659 M 684.031 651.601 C 657.829 658.643, 640.611 679.818, 640.611 705 C 640.611 734.577, 663.939 758, 693.395 758 C 708.396 758, 719.958 753.352, 731.698 742.601 C 750.858 725.057, 755.823 701.402, 744.983 679.313 C 738.296 665.687, 726.648 655.878, 712.068 651.595 C 705.302 649.608, 691.438 649.611, 684.031 651.601 M 685.490 655.518 C 668.263 660.844, 655.734 672.341, 650.487 687.640 C 648.180 694.366, 647.986 695.544, 647.876 703.500 C 647.677 717.922, 652.428 729.066, 663.136 739.293 C 667.047 743.029, 670.486 745.847, 670.777 745.556 C 671.069 745.265, 672.872 745.994, 674.785 747.176 C 682.481 751.932, 695.276 753.634, 707 751.459 C 709.475 751, 711.837 750.709, 712.250 750.812 C 712.663 750.916, 713 750.606, 713 750.125 C 713 749.644, 714.237 749, 715.750 748.695 C 719.873 747.863, 730.469 740.354, 734.554 735.369 C 739.322 729.549, 743.727 720.679, 744.915 714.500 C 746.299 707.302, 746.885 696, 745.875 696 C 744.894 696, 745.172 693.119, 746.331 691.261 C 746.876 690.388, 746.598 690.217, 745.388 690.681 C 744.155 691.155, 743.895 690.979, 744.464 690.058 C 744.900 689.353, 744.852 688.489, 744.358 688.138 C 742.834 687.056, 740.937 681.911, 741.642 680.771 C 742.069 680.079, 741.833 679.985, 740.985 680.510 C 740.015 681.109, 739.836 680.868, 740.319 679.612 C 740.762 678.456, 740.599 678.130, 739.819 678.612 C 739.018 679.107, 738.883 678.746, 739.383 677.445 C 739.780 676.409, 739.807 675.860, 739.442 676.225 C 738.625 677.042, 734 671.699, 734 669.939 C 734 669.239, 733.767 668.900, 733.482 669.185 C 733.197 669.469, 731.385 668.213, 729.454 666.392 C 724.872 662.070, 712.947 656.266, 706 654.977 C 699.092 653.694, 690.672 653.917, 685.490 655.518" stroke="none" fill="#4c4468" fill-rule="evenodd"/><path d="M 968.757 335.530 C 968.616 335.646, 961.075 336.044, 952 336.415 C 936.550 337.047, 930.477 337.533, 925.398 338.545 C 923.331 338.957, 923.293 339.403, 923.110 365.732 C 922.799 410.422, 922.011 466.322, 921.688 466.645 C 921.520 466.813, 900.484 467.224, 874.941 467.559 C 832.574 468.114, 798.553 468.691, 795.169 468.913 C 793.153 469.045, 794.552 536.885, 796.614 538.947 C 796.870 539.203, 803.474 539.535, 811.289 539.685 C 838.927 540.215, 887.735 540.859, 905.674 540.929 L 923.848 541 924.033 572.250 C 924.135 589.438, 924.349 610.475, 924.509 619 C 924.668 627.525, 924.844 642.220, 924.899 651.656 L 925 668.812 929.750 669.408 C 945.486 671.380, 970.554 672.967, 986.250 672.985 L 999 673 999.052 621.250 C 999.081 592.788, 999.059 563.775, 999.004 556.778 L 998.902 544.056 1063.131 544.015 C 1098.457 543.992, 1127.568 543.765, 1127.822 543.511 C 1128.868 542.466, 1129.876 517.780, 1129.936 491.750 L 1130 464 1065.500 464 L 1001 464 1000.997 435.750 C 1000.995 420.212, 1000.883 391.300, 1000.747 371.500 L 1000.500 335.500 984.757 335.409 C 976.099 335.360, 968.899 335.414, 968.757 335.530 M 1222.500 424.109 C 1209.834 425.742, 1202.804 429.226, 1193.317 438.572 C 1187.621 444.183, 1184.691 448.964, 1181.102 458.500 C 1177.203 468.863, 1178.411 485.401, 1183.805 495.487 C 1184.691 497.144, 1185.436 498.725, 1185.461 499 C 1185.525 499.705, 1191.145 507.073, 1193.271 509.238 C 1196.852 512.886, 1207.628 519.577, 1212 520.867 C 1214.475 521.597, 1217.175 522.528, 1218 522.936 C 1219.864 523.857, 1237.601 523.610, 1241 522.615 C 1242.375 522.212, 1243.950 521.764, 1244.500 521.618 C 1255.787 518.630, 1268.549 506.720, 1274.665 493.468 C 1277.831 486.608, 1277.754 486.933, 1278.554 476.952 C 1279.666 463.095, 1273.705 447.901, 1263.204 437.823 C 1258.194 433.014, 1255.408 431.090, 1248.882 427.931 C 1242.976 425.072, 1229.817 423.166, 1222.500 424.109 M 685.978 425.835 C 682.390 426.751, 676.942 428.739, 673.869 430.254 C 668.069 433.114, 654.589 445.526, 655.566 447.107 C 655.870 447.598, 655.728 448, 655.251 448 C 654.150 448, 649.543 458.366, 648.363 463.500 C 647.412 467.638, 647.292 479.359, 648.160 483.352 C 649.720 490.532, 655.785 501.653, 661.513 507.841 C 669.135 516.073, 678.416 520.648, 690.467 522.114 C 698.852 523.134, 700.921 523.065, 710 521.464 C 726.466 518.561, 743.999 498.529, 745.662 480.721 C 746.045 476.612, 746.672 474.297, 747.296 474.683 C 747.947 475.085, 747.986 474.807, 747.405 473.905 C 746.526 472.540, 745.938 467.890, 745.804 461.250 C 745.760 459.081, 745.248 458, 744.262 458 C 743.361 458, 743.010 457.416, 743.362 456.500 C 744.060 454.681, 743.096 451.823, 742.011 452.493 C 741.583 452.758, 740.657 451.587, 739.955 449.891 C 737.853 444.817, 730.277 436.822, 722.752 431.738 C 713.574 425.538, 697.344 422.932, 685.978 425.835 M 1215.500 641.517 C 1212.750 642.177, 1208.700 643.525, 1206.500 644.513 C 1204.300 645.501, 1202.162 646.239, 1201.750 646.154 C 1201.338 646.069, 1201 646.420, 1201 646.933 C 1201 647.446, 1200.168 648.129, 1199.150 648.452 C 1195.488 649.615, 1186.691 659.491, 1183.757 665.733 C 1179.657 674.456, 1178.198 681.691, 1178.393 692.331 C 1178.519 699.162, 1179.186 703.285, 1181.012 708.500 C 1182.359 712.350, 1183.741 715.725, 1184.082 716 C 1184.422 716.275, 1185.849 718.334, 1187.252 720.575 C 1190.557 725.853, 1198.064 732.095, 1205.399 735.666 C 1212.021 738.888, 1213.800 742.124, 1213.281 750 C 1212.865 756.331, 1210.878 765.958, 1209.857 766.588 C 1209.386 766.880, 1209 767.800, 1209 768.634 C 1209 771.239, 1200.002 784.201, 1194.122 790.068 C 1184.973 799.194, 1185.459 797.914, 1185.127 813.763 C 1184.962 821.593, 1185.123 828, 1185.485 828 C 1188.883 828, 1215.230 818.196, 1222.500 814.226 C 1224.150 813.325, 1227.629 811.443, 1230.232 810.044 C 1236.935 806.440, 1249.543 795.788, 1255.952 788.315 C 1262.389 780.808, 1268.729 770.496, 1272.628 761.194 C 1274.171 757.512, 1275.898 754.169, 1276.467 753.765 C 1277.035 753.361, 1277.187 753.024, 1276.804 753.015 C 1276.421 753.007, 1276.728 750.862, 1277.487 748.250 C 1278.761 743.862, 1280.480 735.778, 1281.688 728.500 C 1282.704 722.377, 1282.291 698.330, 1281.079 693 C 1277.421 676.921, 1271.139 664.244, 1262.536 655.577 C 1256.374 649.368, 1252 645.614, 1252 646.533 C 1252 646.815, 1250.875 646.309, 1249.500 645.408 C 1248.125 644.507, 1247 644.098, 1247 644.500 C 1247 644.902, 1245.987 644.574, 1244.750 643.773 C 1243.513 642.972, 1241.150 641.966, 1239.500 641.537 C 1234.541 640.248, 1220.837 640.237, 1215.500 641.517 M 685.490 655.518 C 668.263 660.844, 655.734 672.341, 650.487 687.640 C 648.180 694.366, 647.986 695.544, 647.876 703.500 C 647.677 717.922, 652.428 729.066, 663.136 739.293 C 667.047 743.029, 670.486 745.847, 670.777 745.556 C 671.069 745.265, 672.872 745.994, 674.785 747.176 C 682.481 751.932, 695.276 753.634, 707 751.459 C 709.475 751, 711.837 750.709, 712.250 750.812 C 712.663 750.916, 713 750.606, 713 750.125 C 713 749.644, 714.237 749, 715.750 748.695 C 719.873 747.863, 730.469 740.354, 734.554 735.369 C 739.322 729.549, 743.727 720.679, 744.915 714.500 C 746.299 707.302, 746.885 696, 745.875 696 C 744.894 696, 745.172 693.119, 746.331 691.261 C 746.876 690.388, 746.598 690.217, 745.388 690.681 C 744.155 691.155, 743.895 690.979, 744.464 690.058 C 744.900 689.353, 744.852 688.489, 744.358 688.138 C 742.834 687.056, 740.937 681.911, 741.642 680.771 C 742.069 680.079, 741.833 679.985, 740.985 680.510 C 740.015 681.109, 739.836 680.868, 740.319 679.612 C 740.762 678.456, 740.599 678.130, 739.819 678.612 C 739.018 679.107, 738.883 678.746, 739.383 677.445 C 739.780 676.409, 739.807 675.860, 739.442 676.225 C 738.625 677.042, 734 671.699, 734 669.939 C 734 669.239, 733.767 668.900, 733.482 669.185 C 733.197 669.469, 731.385 668.213, 729.454 666.392 C 724.872 662.070, 712.947 656.266, 706 654.977 C 699.092 653.694, 690.672 653.917, 685.490 655.518" stroke="none" fill="#624773" fill-rule="evenodd"/></svg>